<mxfile host="app.diagrams.net" modified="2024-01-28T17:07:35.232Z" agent="Mozilla/5.0 (Windows NT 10.0; Win64; x64) AppleWebKit/537.36 (KHTML, like Gecko) Chrome/120.0.0.0 Safari/537.36" version="23.0.2" etag="ECGoNzKto-mP5NX3lRgW" type="github">
  <diagram name="Page-1" id="VlXTafrwNK2el4RTZZQ4">
    <mxGraphModel>
      <root>
        <mxCell id="0" />
        <mxCell id="1" parent="0" />
      </root>
    </mxGraphModel>
  </diagram>
</mxfile>
